<svg width="8" height="18" viewBox="0 0 8 18" fill="none" xmlns="http://www.w3.org/2000/svg">
<path d="M4.02851 13.1645C3.77779 12.946 3.57261 12.4951 3.57261 12.1624V0.604682C3.57261 0.272138 3.3006 0.00012207 2.96805 0.00012207H2.19261C1.86007 0.00012207 1.58805 0.272131 1.58805 0.604682L1.58792 12.1621C1.58792 12.4949 1.37457 12.9358 1.11395 13.1423C1.11395 13.1423 -6.10352e-05 14.0245 -6.10352e-05 14.8586C-6.10352e-05 16.1463 1.13312 17.1903 2.53091 17.1903C3.92847 17.1903 5.06151 16.1462 5.06151 14.8586C5.06151 14.0645 4.02851 13.1643 4.02851 13.1643L4.02851 13.1645Z" fill="white"/>
<path d="M3.32154 3.35839C3.32154 3.69094 3.04952 3.96295 2.71696 3.96295H2.45218C2.11963 3.96295 1.84761 3.69094 1.84761 3.35839L1.84747 0.867194C1.84747 0.53465 2.11949 0.262634 2.45205 0.262634H2.71683C3.04938 0.262634 3.3214 0.534643 3.3214 0.867194L3.32154 3.35839Z" fill="white"/>
<path d="M6.59203 10.6013C6.59203 11.1723 6.12958 11.6349 5.55824 11.6349C4.98691 11.6349 4.5246 11.1725 4.5246 10.6013L5.54432 8.7406L6.59203 10.6013Z" fill="white"/>
<path d="M7.70463 12.2926C7.70128 12.624 7.43048 12.8899 7.09873 12.8867C6.76779 12.8837 6.50168 12.6128 6.50504 12.2812L7.10706 11.2071L7.70463 12.2926Z" fill="white"/>
<path d="M7.48691 9.64092C7.48517 9.83847 7.32351 9.99705 7.12611 9.99503C6.92883 9.99316 6.76983 9.83164 6.77199 9.63424L7.13122 8.99377L7.48691 9.64092Z" fill="white"/>
<path d="M4.00692 15.3375C3.98723 15.3372 4.00437 15.3371 4.04496 15.3371C4.085 15.3371 3.99781 15.5814 3.85076 15.8796L3.80281 15.9767C3.65603 16.275 3.31732 16.5193 3.05041 16.5193H2.56464H2.07929C1.81237 16.5193 1.47367 16.275 1.32662 15.9767L1.27867 15.8796C1.13161 15.5814 1.04483 15.3371 1.08554 15.3371C1.12653 15.3371 1.432 15.3371 1.76458 15.3374L3.43841 15.3376C3.77069 15.3376 4.02676 15.3375 4.00694 15.3375H4.00692Z" fill="white"/>
<path d="M2.34477 15.0755C1.95946 15.0533 1.73914 14.929 1.542 14.5552C1.34485 14.181 1.36856 14.0372 1.56744 13.5997L1.57963 13.6011C2.04383 13.6842 2.17466 13.7483 2.36954 14.1197C2.56736 14.4932 2.54472 14.7457 2.34463 15.0753" fill="white"/>
<path d="M2.7963 14.0099C2.62459 14.0002 2.52642 13.9447 2.43868 13.7783C2.35096 13.6119 2.3614 13.5476 2.4502 13.3529L2.45529 13.3533C2.66208 13.3904 2.72048 13.4192 2.80687 13.5843C2.89473 13.7505 2.88468 13.8632 2.79562 14.01" fill="white"/>
<path d="M3.01776 15.0755C2.84245 14.8603 2.80147 14.6826 2.90446 14.3961C3.00798 14.1098 3.09584 14.0529 3.42477 13.946L3.42946 13.9535C3.61106 14.2402 3.63985 14.341 3.53807 14.6246C3.43522 14.9109 3.28977 15.021 3.01776 15.0747" fill="white"/>
</svg>
