<svg width="25" height="24" viewBox="0 0 25 24" fill="none" xmlns="http://www.w3.org/2000/svg">
<path d="M4.43287 10.3757H12.1101C13.0389 10.3824 13.9376 10.0459 14.6335 9.4306C15.3294 8.81535 15.7736 7.96475 15.8809 7.04212C15.9843 6.00591 15.6409 4.97466 14.9367 4.20739C14.2376 3.43983 13.248 3.00163 12.2098 2.99988H10.1382C9.80496 2.99988 9.49707 3.17773 9.33044 3.46623C9.16383 3.75485 9.16383 4.11043 9.33044 4.39904C9.49705 4.68753 9.80496 4.8654 10.1382 4.8654H12.2098C12.7348 4.86607 13.2341 5.09307 13.58 5.48802C13.9258 5.88299 14.0849 6.40784 14.0164 6.92843C13.9477 7.37507 13.7192 7.78156 13.3732 8.07231C13.0274 8.3632 12.5878 8.51843 12.136 8.50945H4.4327C4.09948 8.50945 3.79159 8.68717 3.62496 8.9758C3.45834 9.26443 3.45836 9.61986 3.62496 9.90848C3.79157 10.1971 4.09948 10.3748 4.4327 10.3748L4.43287 10.3757Z" fill="white"/>
<path d="M21.4835 16.5293C21.3762 15.6067 20.9321 14.7562 20.2364 14.1411C19.5405 13.5258 18.6421 13.1891 17.7133 13.1957H11.3001C10.9669 13.1957 10.659 13.3734 10.4924 13.6621C10.3258 13.9507 10.3258 14.3063 10.4924 14.5947C10.659 14.8834 10.9669 15.0611 11.3001 15.0611H17.7386C18.1904 15.0521 18.6301 15.2075 18.9759 15.4982C19.3218 15.7891 19.5503 16.1956 19.619 16.6421C19.6876 17.1627 19.5286 17.6875 19.1826 18.0825C18.8367 18.4776 18.3374 18.7045 17.8124 18.7053H15.74C15.4068 18.7053 15.0989 18.883 14.9323 19.1716C14.7657 19.4601 14.7657 19.8157 14.9323 20.1043C15.0989 20.3929 15.4068 20.5707 15.74 20.5707H17.8115C18.8501 20.5697 19.8405 20.1318 20.54 19.3641C21.2439 18.5967 21.5871 17.5655 21.4833 16.5294L21.4835 16.5293Z" fill="white"/>
<path d="M9.24491 14.1293C9.24478 13.8818 9.14647 13.6446 8.97169 13.4696C8.79678 13.2945 8.55958 13.196 8.31224 13.1957H4.43282C4.0996 13.1957 3.79171 13.3734 3.62508 13.6621C3.45847 13.9507 3.45847 14.3063 3.62508 14.5947C3.79169 14.8834 4.09959 15.0611 4.43282 15.0611H8.31224C8.55934 15.0608 8.79625 14.9625 8.97104 14.7879C9.14583 14.6132 9.24439 14.3764 9.24493 14.1294L9.24491 14.1293Z" fill="white"/>
<path d="M16.2052 10.9781C16.2848 10.9781 16.3611 10.9465 16.4173 10.8903L17.0495 10.2581H17.0494C17.9182 10.4304 18.8143 10.1413 19.4188 9.49407C20.0234 8.84679 20.2505 7.93314 20.0194 7.07812C19.9918 6.9742 19.9106 6.89303 19.8067 6.86544C18.9517 6.63442 18.038 6.86156 17.3907 7.46599C16.7435 8.07056 16.4544 8.96668 16.6267 9.83545L15.9931 10.4657C15.9074 10.5516 15.8817 10.6805 15.9281 10.7926C15.9746 10.9047 16.0839 10.9777 16.2052 10.9779L16.2052 10.9781Z" fill="white"/>
<path d="M9.7314 16.3243L9.09923 15.6921C8.98151 15.5784 8.79441 15.5802 8.67868 15.6959C8.56295 15.8116 8.56135 15.9987 8.67506 16.1164L9.30682 16.7486V16.7485C9.14409 17.5851 9.40579 18.4479 10.0058 19.0531C10.6298 19.6706 12.0245 20.1949 12.6998 19.5031H12.6999C12.9307 18.6484 12.7037 17.7352 12.0996 17.088C11.4955 16.4407 10.5999 16.1516 9.73138 16.3231L9.7314 16.3243Z" fill="white"/>
</svg>
